<svg width="1600" height="1200" viewBox="0 0 1600 1200" fill="none" xmlns="http://www.w3.org/2000/svg">
<rect width="1600" height="1200" fill="white"/>
<rect width="1600" height="1200" fill="#5359A6"/>
<mask id="mask0" mask-type="alpha" maskUnits="userSpaceOnUse" x="0" y="0" width="1600" height="1200">
<rect width="1600" height="1200" fill="white"/>
</mask>
<g mask="url(#mask0)">
<g opacity="0.7">
<rect y="-40" width="160" height="160" fill="#37ABB7"/>
<rect x="800" y="-40" width="160" height="160" fill="#37ABB7"/>
<rect x="320" y="120" width="160" height="160" fill="#37ABB7"/>
<rect x="960" y="280" width="160" height="160" fill="#37ABB7"/>
<rect x="1440" y="440" width="160" height="160" fill="#37ABB7"/>
<rect y="600" width="160" height="160" fill="#37ABB7"/>
<rect x="640" y="760" width="160" height="160" fill="#37ABB7"/>
<rect x="640" y="920" width="160" height="160" fill="#37ABB7"/>
<rect x="160" y="1080" width="160" height="160" fill="#37ABB7"/>
<rect x="1440" y="1080" width="160" height="160" fill="#37ABB7"/>
</g>
<g opacity="0.6">
<rect x="960" y="-40" width="160" height="160" fill="#37ABB7"/>
<rect x="1440" y="-40" width="160" height="160" fill="#37ABB7"/>
<rect y="120" width="160" height="160" fill="#37ABB7"/>
<rect y="440" width="160" height="160" fill="#37ABB7"/>
<rect x="1280" y="760" width="160" height="160" fill="#37ABB7"/>
<rect y="920" width="160" height="160" fill="#37ABB7"/>
<rect x="1280" y="920" width="160" height="160" fill="#37ABB7"/>
<rect x="800" y="1080" width="160" height="160" fill="#37ABB7"/>
<rect x="480" y="440" width="160" height="160" fill="#37ABB7"/>
</g>
<g opacity="0.5">
<rect x="160" y="120" width="160" height="160" fill="#37ABB7"/>
<rect y="280" width="160" height="160" fill="#37ABB7"/>
<rect x="800" y="280" width="160" height="160" fill="#37ABB7"/>
<rect x="1440" y="280" width="160" height="160" fill="#37ABB7"/>
<rect x="1280" y="440" width="160" height="160" fill="#37ABB7"/>
<rect x="480" y="600" width="160" height="160" fill="#37ABB7"/>
<rect x="640" y="600" width="160" height="160" fill="#37ABB7"/>
<rect x="320" y="760" width="160" height="160" fill="#37ABB7"/>
<rect x="480" y="760" width="160" height="160" fill="#37ABB7"/>
<rect x="1440" y="920" width="160" height="160" fill="#37ABB7"/>
<rect x="480" y="1080" width="160" height="160" fill="#37ABB7"/>
<rect x="1120" y="1080" width="160" height="160" fill="#37ABB7"/>
</g>
<g opacity="0.4">
<rect x="640" y="-40" width="160" height="160" fill="#37ABB7"/>
<rect x="1120" y="-40" width="160" height="160" fill="#37ABB7"/>
<rect x="480" y="280" width="160" height="160" fill="#37ABB7"/>
<rect x="160" y="440" width="160" height="160" fill="#37ABB7"/>
<rect x="1120" y="440" width="160" height="160" fill="#37ABB7"/>
<rect x="800" y="600" width="160" height="160" fill="#37ABB7"/>
<rect x="960" y="600" width="160" height="160" fill="#37ABB7"/>
<rect x="1440" y="760" width="160" height="160" fill="#37ABB7"/>
<rect x="160" y="920" width="160" height="160" fill="#37ABB7"/>
<rect x="800" y="920" width="160" height="160" fill="#37ABB7"/>
</g>
<g opacity="0.3">
<rect x="1280" y="-40" width="160" height="160" fill="#37ABB7"/>
<rect x="640" y="120" width="160" height="160" fill="#37ABB7"/>
<rect x="960" y="120" width="160" height="160" fill="#37ABB7"/>
<rect x="1120" y="280" width="160" height="160" fill="#37ABB7"/>
<rect x="320" y="440" width="160" height="160" fill="#37ABB7"/>
<rect x="640" y="440" width="160" height="160" fill="#37ABB7"/>
<rect x="320" y="600" width="160" height="160" fill="#37ABB7"/>
<rect x="1120" y="600" width="160" height="160" fill="#37ABB7"/>
<rect x="160" y="760" width="160" height="160" fill="#37ABB7"/>
</g>
<g style="mix-blend-mode:multiply" opacity="0.2">
<rect x="320" y="-40" width="160" height="160" fill="#37ABB7"/>
<rect x="480" y="120" width="160" height="160" fill="#37ABB7"/>
<rect x="1280" y="120" width="160" height="160" fill="#37ABB7"/>
<rect x="320" y="280" width="160" height="160" fill="#37ABB7"/>
<rect x="640" y="280" width="160" height="160" fill="#37ABB7"/>
<rect x="960" y="440" width="160" height="160" fill="#37ABB7"/>
<rect x="160" y="600" width="160" height="160" fill="#37ABB7"/>
<rect x="960" y="920" width="160" height="160" fill="#37ABB7"/>
</g>
<rect x="160" y="-40" width="160" height="160" fill="#37ABB7"/>
<rect x="480" y="-40" width="160" height="160" fill="#37ABB7"/>
<rect x="800" y="120" width="160" height="160" fill="#F05D42"/>
<rect x="1280" y="280" width="160" height="160" fill="#F05D42"/>
<rect x="800" y="440" width="160" height="160" fill="#37ABB7"/>
<rect x="1280" y="600" width="160" height="160" fill="#37ABB7"/>
<rect x="800" y="760" width="160" height="160" fill="#37ABB7"/>
<rect x="480" y="920" width="160" height="160" fill="#37ABB7"/>
<rect x="320" y="920" width="160" height="160" fill="#F05D42"/>
<rect x="1120" y="920" width="160" height="160" fill="#37ABB7"/>
<rect y="1080" width="160" height="160" fill="#37ABB7"/>
<rect x="320" y="1080" width="160" height="160" fill="#37ABB7"/>
<rect x="640" y="1080" width="160" height="160" fill="#37ABB7"/>
<rect x="1120" y="120" width="160" height="160" fill="#C4DD76"/>
<rect x="1440" y="120" width="160" height="160" fill="#C4DD76"/>
<rect x="160" y="280" width="160" height="160" fill="#C4DD76"/>
<rect x="1440" y="600" width="160" height="160" fill="#C4DD76"/>
<rect y="760" width="160" height="160" fill="#C4DD76"/>
<rect x="960" y="760" width="160" height="160" fill="#C4DD76"/>
<rect x="1120" y="760" width="160" height="160" fill="#C4DD76"/>
<rect x="960" y="1080" width="160" height="160" fill="#C4DD76"/>
<rect x="1280" y="1080" width="160" height="160" fill="#C4DD76"/>
<path d="M898.145 567.898H733.977C731.822 567.898 729.755 567.042 728.231 565.518C726.708 563.994 725.852 561.927 725.852 559.772C725.852 557.617 726.708 555.551 728.231 554.027C729.755 552.503 731.822 551.647 733.977 551.647H898.145C900.3 551.647 902.366 552.503 903.89 554.027C905.414 555.551 906.27 557.617 906.27 559.772C906.27 561.927 905.414 563.994 903.89 565.518C902.366 567.042 900.3 567.898 898.145 567.898Z" fill="#151E3D"/>
<path d="M909.974 535.397H722.145C717.01 535.397 712.85 531.763 712.85 527.271C712.85 522.779 717.01 519.146 722.145 519.146H910.007C915.142 519.146 919.309 522.786 919.309 527.271C919.309 531.756 915.11 535.397 909.974 535.397Z" fill="#151E3D"/>
<path d="M911.151 600.4H746.977C744.822 600.4 742.755 599.544 741.231 598.02C739.708 596.496 738.852 594.429 738.852 592.274C738.852 590.119 739.708 588.053 741.231 586.529C742.755 585.005 744.822 584.149 746.977 584.149H911.151C913.306 584.149 915.373 585.005 916.897 586.529C918.421 588.053 919.277 590.119 919.277 592.274C919.277 594.429 918.421 596.496 916.897 598.02C915.373 599.544 913.306 600.4 911.151 600.4Z" fill="#151E3D"/>
<path d="M930.945 620.337L926.498 632.565C925.735 632.793 924.942 632.909 924.145 632.909H759.971C757.816 632.909 755.749 632.053 754.226 630.529C752.702 629.005 751.846 626.939 751.846 624.784C751.846 622.629 752.702 620.562 754.226 619.038C755.749 617.514 757.816 616.658 759.971 616.658H924.145C925.496 616.656 926.825 616.992 928.012 617.634C929.2 618.277 930.208 619.206 930.945 620.337V620.337Z" fill="#151E3D"/>
<path d="M683.632 535.397H668.973C666.818 535.397 664.751 534.54 663.228 533.017C661.704 531.493 660.848 529.426 660.848 527.271C660.848 525.116 661.704 523.049 663.228 521.525C664.751 520.002 666.818 519.146 668.973 519.146H683.632C685.787 519.146 687.853 520.002 689.377 521.525C690.901 523.049 691.757 525.116 691.757 527.271C691.757 529.426 690.901 531.493 689.377 533.017C687.853 534.54 685.787 535.397 683.632 535.397V535.397Z" fill="#207FA2"/>
<path d="M696.632 567.898H681.973C679.818 567.898 677.751 567.042 676.228 565.518C674.704 563.994 673.848 561.927 673.848 559.772C673.848 557.617 674.704 555.551 676.228 554.027C677.751 552.503 679.818 551.647 681.973 551.647H696.632C698.787 551.647 700.853 552.503 702.377 554.027C703.901 555.551 704.757 557.617 704.757 559.772C704.757 561.927 703.901 563.994 702.377 565.518C700.853 567.042 698.787 567.898 696.632 567.898V567.898Z" fill="#207FA2"/>
<path d="M709.635 600.4H694.977C692.822 600.4 690.755 599.544 689.231 598.02C687.708 596.496 686.852 594.429 686.852 592.274C686.852 590.119 687.708 588.053 689.231 586.529C690.755 585.005 692.822 584.149 694.977 584.149H709.635C711.79 584.149 713.857 585.005 715.381 586.529C716.905 588.053 717.761 590.119 717.761 592.274C717.761 594.429 716.905 596.496 715.381 598.02C713.857 599.544 711.79 600.4 709.635 600.4Z" fill="#207FA2"/>
<path d="M722.634 632.909H707.975C705.82 632.909 703.753 632.053 702.23 630.529C700.706 629.005 699.85 626.939 699.85 624.784C699.85 622.629 700.706 620.562 702.23 619.038C703.753 617.514 705.82 616.658 707.975 616.658H722.634C724.789 616.658 726.855 617.514 728.379 619.038C729.903 620.562 730.759 622.629 730.759 624.784C730.759 626.939 729.903 629.005 728.379 630.529C726.855 632.053 724.789 632.909 722.634 632.909Z" fill="#207FA2"/>
<path d="M896.044 664.149L881.678 675.85C881.118 676.307 880.527 676.726 879.91 677.104C876.748 679.086 873.391 680.74 869.893 682.038C865.47 683.799 860.902 685.174 856.242 686.146C851.647 687.093 846.985 687.675 842.299 687.889C841.135 687.921 839.978 687.973 838.821 687.986L835.35 687.928C834.193 687.928 833.049 687.824 831.898 687.765C830.747 687.707 829.603 687.648 828.466 687.499L825.06 687.115C823.922 686.985 822.81 686.764 821.686 686.595C819.43 686.27 817.227 685.763 815.017 685.295C813.905 685.08 812.826 684.768 811.734 684.489L808.484 683.618L805.272 682.617C804.219 682.266 803.134 681.967 802.094 681.577L798.954 680.433C797.914 680.043 796.861 679.679 795.847 679.237L789.821 676.727C774.595 670.332 758.037 667.754 741.588 669.219C737.429 669.559 733.291 670.119 729.192 670.897C725.083 671.677 721.001 672.639 716.971 673.822C712.941 675.005 708.969 676.422 705.062 677.969C703.103 678.749 701.175 679.585 699.277 680.478C697.385 681.369 695.468 682.331 693.706 683.332H693.667C693.313 683.546 692.888 683.61 692.486 683.511C692.085 683.411 691.739 683.156 691.525 682.802C691.311 682.448 691.247 682.023 691.346 681.621C691.446 681.22 691.701 680.874 692.055 680.66C693.953 679.451 695.812 678.411 697.736 677.41C699.66 676.409 701.585 675.401 703.541 674.485C707.441 672.643 711.448 670.988 715.56 669.518C719.643 668.043 723.796 666.743 728.022 665.651C732.251 664.552 736.537 663.684 740.86 663.051C749.582 661.702 758.429 661.34 767.232 661.971C776.144 662.619 784.939 664.385 793.409 667.23L799.403 669.128C800.378 669.46 801.353 669.707 802.36 669.973L805.324 670.767C806.312 671.046 807.314 671.222 808.308 671.417L811.285 672.067L814.282 672.574C815.283 672.743 816.271 672.944 817.279 673.035C825.135 674.179 833.113 674.211 840.979 673.133C844.8 672.579 848.571 671.725 852.257 670.578C855.872 669.425 859.382 667.966 862.749 666.216C866.041 664.473 869.164 662.428 872.077 660.106C873.5 658.985 874.861 657.787 876.153 656.518C876.408 656.266 876.655 656.013 876.894 655.757C877.258 655.38 877.602 654.997 877.947 654.62C878.291 654.243 878.499 653.969 878.733 653.69C878.863 653.534 878.974 653.391 879.071 653.254L879.208 653.072C879.208 653.072 879.247 653.014 879.253 652.994C880.952 650.926 883.4 649.614 886.062 649.345C888.725 649.076 891.386 649.871 893.463 651.558C894.12 652.085 894.705 652.694 895.205 653.371C896.349 654.905 897.035 656.732 897.183 658.639C897.331 660.546 896.937 662.457 896.044 664.149V664.149Z" fill="#207FA2"/>
<path d="M682.988 671.469C681.213 671.469 679.478 670.935 678.009 669.937C676.541 668.939 675.406 667.523 674.752 665.873L615.735 517.046C614.248 513.279 613.705 509.206 614.152 505.182C614.599 501.157 616.024 497.303 618.302 493.955C620.58 490.606 623.642 487.866 627.221 485.972C630.8 484.078 634.788 483.088 638.837 483.088H897.417C898.601 483.056 899.78 483.261 900.883 483.692C901.986 484.123 902.992 484.771 903.841 485.597C904.69 486.423 905.365 487.411 905.825 488.503C906.286 489.594 906.523 490.766 906.523 491.951C906.523 493.136 906.286 494.308 905.825 495.399C905.365 496.491 904.69 497.479 903.841 498.305C902.992 499.131 901.986 499.779 900.883 500.21C899.78 500.641 898.601 500.846 897.417 500.814H638.837C637.674 500.812 636.528 501.095 635.5 501.639C634.472 502.182 633.592 502.97 632.939 503.932C632.286 504.895 631.879 506.003 631.754 507.159C631.628 508.315 631.788 509.485 632.22 510.565L691.224 659.333C691.756 660.678 691.951 662.132 691.793 663.569C691.634 665.006 691.127 666.382 690.315 667.579C689.503 668.775 688.411 669.755 687.134 670.433C685.857 671.111 684.434 671.467 682.988 671.469Z" fill="#151E3D"/>
<path d="M984.413 473.428L930.947 620.337L926.5 632.564L925.122 636.347C923.708 640.214 921.273 643.627 918.076 646.221L896.046 664.15L882.655 675.044C882.47 675.196 882.249 675.297 882.012 675.338C881.776 675.378 881.534 675.356 881.309 675.274C881.083 675.192 880.884 675.053 880.729 674.87C880.574 674.687 880.469 674.467 880.426 674.232L876.889 655.803L872.495 632.909L871.845 629.385C871.064 625.343 871.394 621.164 872.801 617.295L873.035 616.645L878.95 600.394L884.859 584.143L932.071 454.375C933.3 451.003 935.212 447.92 937.686 445.32C940.16 442.719 943.143 440.657 946.45 439.262C953.118 436.443 960.605 436.252 967.407 438.728C974.21 441.203 979.823 446.162 983.119 452.607C984.755 455.802 985.714 459.3 985.936 462.882C986.159 466.465 985.64 470.055 984.413 473.428V473.428Z" fill="url(#paint0_linear)"/>
<path d="M725.345 698.088C719.024 698.088 712.846 699.963 707.591 703.474C702.336 706.985 698.24 711.976 695.821 717.815C693.403 723.655 692.77 730.08 694.003 736.279C695.236 742.478 698.279 748.172 702.748 752.641C707.217 757.11 712.912 760.153 719.11 761.386C725.309 762.619 731.734 761.986 737.574 759.568C743.413 757.149 748.404 753.053 751.915 747.798C755.426 742.543 757.301 736.365 757.301 730.044C757.29 721.572 753.92 713.45 747.93 707.459C741.939 701.469 733.817 698.099 725.345 698.088ZM725.345 749.338C721.53 749.334 717.801 748.199 714.631 746.077C711.461 743.954 708.991 740.94 707.534 737.414C706.077 733.888 705.697 730.01 706.444 726.268C707.191 722.527 709.03 719.091 711.729 716.395C714.428 713.699 717.865 711.863 721.607 711.12C725.349 710.378 729.228 710.761 732.752 712.222C736.276 713.682 739.288 716.155 741.407 719.328C743.526 722.5 744.657 726.229 744.657 730.044C744.65 735.162 742.613 740.069 738.992 743.686C735.371 747.303 730.463 749.336 725.345 749.338V749.338Z" fill="#151E3D"/>
<path d="M837.132 698.088C830.812 698.087 824.633 699.96 819.377 703.471C814.121 706.981 810.024 711.972 807.604 717.811C805.185 723.65 804.551 730.075 805.783 736.275C807.015 742.474 810.058 748.169 814.527 752.638C818.996 757.108 824.69 760.152 830.889 761.386C837.088 762.619 843.514 761.987 849.353 759.568C855.193 757.15 860.184 753.054 863.696 747.799C867.208 742.544 869.082 736.365 869.082 730.044C869.073 721.573 865.705 713.451 859.715 707.46C853.725 701.469 845.604 698.099 837.132 698.088V698.088ZM837.132 749.338C833.317 749.338 829.586 748.206 826.414 746.086C823.241 743.966 820.768 740.953 819.308 737.428C817.848 733.902 817.465 730.023 818.21 726.28C818.954 722.538 820.792 719.1 823.49 716.402C826.188 713.704 829.626 711.866 833.368 711.122C837.111 710.377 840.99 710.76 844.516 712.22C848.041 713.68 851.054 716.153 853.174 719.326C855.294 722.498 856.426 726.229 856.426 730.044C856.42 735.16 854.386 740.064 850.769 743.681C847.152 747.298 842.248 749.332 837.132 749.338V749.338Z" fill="#151E3D"/>
</g>
<defs>
<linearGradient id="paint0_linear" x1="968.266" y1="441.439" x2="878.502" y2="676.591" gradientUnits="userSpaceOnUse">
<stop stop-color="#666FD1"/>
<stop offset="1" stop-color="#2E3192"/>
</linearGradient>
</defs>
</svg>
