<svg xmlns="http://www.w3.org/2000/svg" xmlns:xlink="http://www.w3.org/1999/xlink" viewBox="0 0 572.26 500"><defs><linearGradient id="linear-gradient" x1="544.99" y1="6.87" x2="406.9" y2="368.62" gradientUnits="userSpaceOnUse"><stop offset="0" stop-color="#666fd1"/><stop offset="1" stop-color="#2e3192"/></linearGradient></defs><title>Asset 5</title><g id="Layer_2" data-name="Layer 2"><g id="Layer_2-2" data-name="Layer 2"><path d="M437.12,201.41H184.57a12.5,12.5,0,0,1,0-25H437.12a12.5,12.5,0,0,1,0,25Z" style="fill:#151e3d"/><path d="M455.32,151.41H166.37c-7.9,0-14.3-5.59-14.3-12.5s6.4-12.5,14.3-12.5h289c7.9,0,14.31,5.6,14.31,12.5S463.22,151.41,455.32,151.41Z" style="fill:#151e3d"/><path d="M457.13,251.41H204.57a12.5,12.5,0,0,1,0-25H457.13a12.5,12.5,0,0,1,0,25Z" style="fill:#151e3d"/><path d="M487.58,282.08l-6.84,18.81a12.67,12.67,0,0,1-3.62.53H224.56a12.5,12.5,0,0,1,0-25H477.12A12.46,12.46,0,0,1,487.58,282.08Z" style="fill:#151e3d"/><path d="M107.12,151.41H84.57a12.5,12.5,0,0,1,0-25h22.55a12.5,12.5,0,0,1,0,25Z" style="fill:#207fa2"/><path d="M127.12,201.41H104.57a12.5,12.5,0,0,1,0-25h22.55a12.5,12.5,0,0,1,0,25Z" style="fill:#207fa2"/><path d="M147.12,251.41H124.57a12.5,12.5,0,0,1,0-25h22.55a12.5,12.5,0,0,1,0,25Z" style="fill:#207fa2"/><path d="M167.12,301.42H144.57a12.5,12.5,0,0,1,0-25h22.55a12.5,12.5,0,0,1,0,25Z" style="fill:#207fa2"/><path d="M433.89,349.48l-22.1,18a24.76,24.76,0,0,1-2.72,1.93A84.16,84.16,0,0,1,393.66,377a126.84,126.84,0,0,1-21,6.32A137.37,137.37,0,0,1,351.21,386c-1.79.05-3.57.13-5.35.15l-5.34-.09c-1.78,0-3.54-.16-5.31-.25s-3.53-.18-5.28-.41l-5.24-.59c-1.75-.2-3.46-.54-5.19-.8-3.47-.5-6.86-1.28-10.26-2-1.71-.33-3.37-.81-5.05-1.24l-5-1.34-4.94-1.54c-1.62-.54-3.29-1-4.89-1.6l-4.83-1.76c-1.6-.6-3.22-1.16-4.78-1.84l-9.27-3.86a155.88,155.88,0,0,0-74.2-11.55,181.51,181.51,0,0,0-19.07,2.58c-6.32,1.2-12.6,2.68-18.8,4.5s-12.31,4-18.32,6.38q-4.52,1.8-8.9,3.86c-2.91,1.37-5.86,2.85-8.57,4.39l-.06,0a2.4,2.4,0,0,1-2.48-4.11c2.92-1.86,5.78-3.46,8.74-5s5.92-3.09,8.93-4.5q9-4.25,18.49-7.64c6.28-2.27,12.67-4.27,19.17-5.95a185.28,185.28,0,0,1,19.75-4,180.79,180.79,0,0,1,40.57-1.66A163.73,163.73,0,0,1,276,354.22l9.22,2.92c1.5.51,3,.89,4.55,1.3l4.56,1.22c1.52.43,3.06.7,4.59,1l4.58,1,4.61.78c1.54.26,3.06.57,4.61.71a130.26,130.26,0,0,0,36.46.15,112.82,112.82,0,0,0,17.35-3.93,102.74,102.74,0,0,0,16.14-6.71,92.39,92.39,0,0,0,14.35-9.4,76.07,76.07,0,0,0,6.27-5.52q.59-.58,1.14-1.17c.56-.58,1.09-1.17,1.62-1.75s.85-1,1.21-1.43c.2-.24.37-.46.52-.67l.21-.28s.06-.09.07-.12h0a15.58,15.58,0,0,1,21.86-2.21,15,15,0,0,1,2.68,2.79A15.58,15.58,0,0,1,433.89,349.48Z" style="fill:#207fa2"/><path d="M106.13,360.74a13.63,13.63,0,0,1-12.67-8.61L2.67,123.18A38.21,38.21,0,0,1,38.21,70.94H436a13.64,13.64,0,1,1,0,27.27H38.21a10.94,10.94,0,0,0-10.18,15L118.8,342.07a13.65,13.65,0,0,1-12.67,18.67Z" style="fill:#151e3d"/><path d="M569.83,56.08l-82.25,226-6.84,18.81-2.12,5.82a35.08,35.08,0,0,1-10.84,15.19l-33.89,27.58-20.6,16.76a2.12,2.12,0,0,1-3.43-1.25l-5.44-28.35-6.76-35.22-1-5.42a35,35,0,0,1,1.47-18.6l.36-1,9.1-25,9.09-25L489.31,26.77A40.16,40.16,0,0,1,511.43,3.52a44.08,44.08,0,0,1,56.41,20.53A40.15,40.15,0,0,1,569.83,56.08Z" style="fill:url(#linear-gradient)"/><path d="M171.29,401.69a49.16,49.16,0,1,0,49.16,49.16A49.22,49.22,0,0,0,171.29,401.69Zm0,78.84A29.68,29.68,0,1,1,201,450.85,29.72,29.72,0,0,1,171.29,480.53Z" style="fill:#151e3d"/><path d="M343.26,401.69a49.16,49.16,0,1,0,49.15,49.16A49.21,49.21,0,0,0,343.26,401.69Zm0,78.84a29.68,29.68,0,1,1,29.68-29.68A29.71,29.71,0,0,1,343.26,480.53Z" style="fill:#151e3d"/></g></g></svg>