<svg width="1600" height="1200" viewBox="0 0 1600 1200" fill="none" xmlns="http://www.w3.org/2000/svg">
<rect width="1600" height="1200" fill="white"/>
<rect x="115" y="108" width="1231" height="923" fill="white"/>
<mask id="mask0" mask-type="alpha" maskUnits="userSpaceOnUse" x="115" y="108" width="1231" height="923">
<rect x="115" y="108" width="1231" height="923" fill="white"/>
</mask>
<g mask="url(#mask0)">
<path d="M730.5 723.863C730.5 808.822 661.607 877.697 576.625 877.697V723.863H730.5Z" fill="#FF743C"/>
<path d="M576.625 1031.53C491.643 1031.53 422.75 962.656 422.75 877.697H576.625V1031.53Z" fill="#FF743C"/>
<path d="M115 877.697V877.697C115 792.738 183.892 723.863 268.875 723.863V723.863V877.697H115Z" fill="#FF743C"/>
<path d="M576.625 108C576.625 192.959 507.732 261.833 422.75 261.833V108L576.625 108Z" fill="#FF743C"/>
<path d="M576.625 877.697V877.697C491.641 877.697 422.75 808.822 422.75 723.863V723.863H576.625V877.697Z" fill="#2D3652"/>
<path d="M576.625 802.371V802.371C533.254 802.371 498.096 767.223 498.096 723.863V723.863H576.625V802.371Z" fill="#6ED47C"/>
<path d="M268.875 1031.53V1031.53C183.892 1031.53 115 962.656 115 877.697V877.697H268.875V1031.53Z" fill="#D5E155"/>
<path d="M268.875 956.205V956.205C225.505 956.205 190.346 921.057 190.346 877.697V877.697H268.875V956.205Z" fill="#2D3652"/>
<path d="M730.5 1031.53V1031.53C645.516 1031.53 576.625 962.656 576.625 877.697V877.697H730.5V1031.53Z" fill="#6ED47C"/>
<path d="M730.5 956.205V956.205C687.129 956.205 651.971 921.057 651.971 877.697V877.697H730.5V956.205Z" fill="#D5E155"/>
<path d="M268.875 416.197V493.114C268.875 535.593 234.429 570.031 191.938 570.031V493.114C191.938 450.634 226.384 416.197 268.875 416.197Z" fill="#D5E155"/>
<path d="M345.813 570.031V493.114C345.813 450.634 311.366 416.197 268.875 416.197V416.197V493.114C268.875 535.593 303.321 570.031 345.813 570.031V570.031Z" fill="#2D3652"/>
<path d="M191.938 493.113V570.03C191.938 612.51 157.491 646.947 115 646.947V646.947L115 570.03C115 527.55 149.446 493.113 191.938 493.113V493.113Z" fill="#6ED47C"/>
<path d="M576.625 492.583H653.563C696.054 492.583 730.5 458.146 730.5 415.666V415.666H653.563C611.071 415.666 576.625 450.103 576.625 492.583V492.583Z" fill="#2D3652"/>
<path d="M499.688 569.501H576.625C619.116 569.501 653.563 535.064 653.563 492.584V492.584H576.625C534.134 492.584 499.688 527.021 499.688 569.501V569.501Z" fill="#6ED47C"/>
<path d="M576.625 108V261.833C576.625 346.792 645.518 415.667 730.5 415.667V415.667V261.833C730.5 176.874 661.607 108 576.625 108V108Z" fill="#FF743C"/>
<path d="M653.562 262.363V338.627C653.562 381.174 688.009 415.666 730.5 415.666V415.666V339.402C730.5 296.854 696.054 262.363 653.562 262.363V262.363Z" fill="#2D3652"/>
<path d="M115 416.197L115 262.099C115 176.993 183.892 108 268.875 108V108V262.099C268.875 347.204 199.983 416.197 115 416.197V416.197Z" fill="#2D3652"/>
<path d="M191.938 261.303V185.039C191.938 142.492 226.384 108 268.875 108V108V184.264C268.875 226.813 234.429 261.303 191.938 261.303V261.303Z" fill="#6ED47C"/>
<path d="M422.75 1031.53V877.698C422.75 792.739 353.857 723.865 268.875 723.865V723.865L268.875 877.698C268.875 962.657 337.768 1031.53 422.75 1031.53V1031.53Z" fill="#F0F1F1"/>
<path d="M345.813 877.166V800.902C345.813 758.355 311.366 723.863 268.875 723.863V723.863V800.127C268.875 842.676 303.321 877.166 345.813 877.166V877.166Z" fill="#FFC700"/>
<path d="M422.75 108V261.833C422.75 346.792 353.857 415.667 268.875 415.667V415.667V261.833C268.875 176.874 337.768 108 422.75 108V108Z" fill="#F0F1F1"/>
<path d="M345.813 262.895V339.158C345.813 381.706 311.366 416.197 268.875 416.197V416.197V339.933C268.875 297.385 303.321 262.895 345.813 262.895V262.895Z" fill="#D5E155"/>
<path d="M576.625 570.031H422.75C337.768 570.031 268.875 638.906 268.875 723.865V723.865H422.75C507.732 723.865 576.625 654.99 576.625 570.031V570.031Z" fill="#F0F1F1"/>
<path d="M422.219 646.947H345.935C303.376 646.947 268.875 681.384 268.875 723.864V723.864H345.16C387.72 723.864 422.219 689.427 422.219 646.947V646.947Z" fill="#FF743C"/>
<path d="M1015.96 723.598C1015.96 710.855 1026.3 700.523 1039.05 700.523V700.523C1051.79 700.523 1062.13 710.855 1062.13 723.598V723.598C1062.13 736.342 1051.79 746.673 1039.05 746.673V746.673C1026.3 746.673 1015.96 736.342 1015.96 723.598V723.598Z" fill="#FFC700"/>
<path d="M668.42 528.919C668.42 516.175 678.754 505.844 691.501 505.844V505.844C704.248 505.844 714.582 516.175 714.582 528.919V528.919C714.582 541.662 704.248 551.994 691.501 551.994V551.994C678.754 551.994 668.42 541.662 668.42 528.919V528.919Z" fill="#FF743C"/>
<path d="M514.545 454.655C514.545 441.912 524.879 431.58 537.626 431.58V431.58C550.373 431.58 560.707 441.912 560.707 454.655V454.655C560.707 467.399 550.373 477.73 537.626 477.73V477.73C524.879 477.73 514.545 467.399 514.545 454.655V454.655Z" fill="#6ED47C"/>
<path d="M249.243 681.161C249.243 693.905 238.909 704.236 226.161 704.236V704.236C213.414 704.236 203.08 693.905 203.08 681.161V681.161C203.08 668.417 213.414 658.086 226.161 658.086V658.086C238.909 658.086 249.243 668.417 249.243 681.161V681.161Z" fill="#FF743C"/>
<path d="M176.549 681.161C176.549 693.905 166.215 704.236 153.468 704.236V704.236C140.721 704.236 130.387 693.905 130.387 681.161V681.161C130.387 668.417 140.721 658.086 153.468 658.086V658.086C166.215 658.086 176.549 668.417 176.549 681.161V681.161Z" fill="#2D3652"/>
<path d="M249.243 608.489C249.243 621.233 238.909 631.564 226.161 631.564V631.564C213.414 631.564 203.08 621.233 203.08 608.489V608.489C203.08 595.746 213.414 585.414 226.161 585.414V585.414C238.909 585.414 249.243 595.746 249.243 608.489V608.489Z" fill="#6ED47C"/>
<path d="M709.807 838.444C709.807 827.018 719.071 817.756 730.5 817.756C741.929 817.756 751.194 827.018 751.194 838.444C751.194 849.87 741.929 859.132 730.5 859.132C719.071 859.132 709.807 849.87 709.807 838.444Z" fill="#FF743C"/>
<path d="M133.041 454.389C133.041 442.963 142.306 433.701 153.735 433.701V433.701C165.163 433.701 174.428 442.963 174.428 454.389V454.389C174.428 465.815 165.163 475.077 153.735 475.077V475.077C142.306 475.077 133.041 465.815 133.041 454.389V454.389Z" fill="#FF743C"/>
<path d="M422.75 338.751C422.75 296.271 457.196 261.834 499.688 261.834V261.834C542.179 261.834 576.625 296.271 576.625 338.751V338.751C576.625 381.23 542.179 415.667 499.688 415.667V415.667C457.196 415.667 422.75 381.23 422.75 338.751V338.751Z" fill="#FFC700"/>
<path d="M457.238 339.015C457.238 315.431 476.362 296.312 499.952 296.312V296.312C523.541 296.312 542.665 315.431 542.665 339.015V339.015C542.665 362.598 523.541 381.717 499.952 381.717V381.717C476.362 381.717 457.238 362.598 457.238 339.015V339.015Z" fill="#2D3652"/>
<path d="M730.501 646.948C730.501 689.427 696.173 723.865 653.828 723.865C611.484 723.865 577.156 689.427 577.156 646.948C577.156 604.468 611.484 570.031 653.828 570.031H730.501V646.948Z" fill="#D5E155"/>
<path d="M422.75 570.031C465.241 570.031 499.688 535.593 499.688 493.114C499.688 450.634 465.241 416.197 422.75 416.197C380.259 416.197 345.812 450.634 345.812 493.114V570.031H422.75Z" fill="#FF743C"/>
</g>
</svg>
